<?xml version="1.0" ?><svg style="enable-background:new 0 0 128 128;" version="1.1" viewBox="0 0 128 128" xml:space="preserve" xmlns="http://www.w3.org/2000/svg" xmlns:xlink="http://www.w3.org/1999/xlink"><g id="Train"/><g id="Car"/><g id="Taxi"/><g id="Truk"/><g id="Cruise"/><g id="Railway"/><g id="Trem"/><g id="Bus"/><g id="Yatch"/><g id="pLANE"/><g id="Bicycle"><path d="M94,61c-3.7,0-7.1,1.3-9.8,3.4L72.4,50.2l1.8-8.2H78v-2H68v2h4.1l-1.6,7H42.9l0.6-2.4c0.1-0.3,0-0.6-0.1-0.8   c-0.2-0.2-0.4-0.4-0.7-0.4c-1.3-0.2-3.4-1-3.1-4c0.2-1.9,2-3.4,4-3.4H47v-2h-3.4c-3.1,0-5.7,2.2-6,5.2c-0.3,2.9,1.1,5.1,3.7,5.9   l-3.4,14.2C36.9,61.1,36,61,35,61c-8.8,0-16,7.2-16,16s7.2,16,16,16s16-7.2,16-16c0-7.2-4.7-13.2-11.2-15.3l1.1-4.4l24.4,18.4   c0.2,0.1,0.3,0.2,0.5,0.2L78,76.9c0,0,0,0.1,0,0.1c0,8.8,7.2,16,16,16s16-7.2,16-16S102.8,61,94,61z M49,77c0,7.7-6.3,14-14,14   s-14-6.3-14-14s6.3-14,14-14c0.8,0,1.6,0.1,2.3,0.2l-3.5,14.4l1.9,0.5l3.5-14.4C44.9,65.5,49,70.8,49,77z M91.2,75.8L80.2,75   c0.4-3,1.8-5.7,3.8-7.8L91.2,75.8z M42.4,51h27.8l-4.9,22.2l-23.9-18L42.4,51z M67.1,74.1l4.8-21.4l10.9,13   c-2.4,2.4-4.1,5.6-4.6,9.2L67.1,74.1z M94,91c-7.7,0-14-6.3-14-14l13.4,1c0,0,0,0,0.1,0c0.4,0,0.7-0.2,0.9-0.5   c0.2-0.4,0.1-0.8-0.1-1.1l-8.8-10.5c2.4-1.8,5.3-2.9,8.5-2.9c7.7,0,14,6.3,14,14S101.7,91,94,91z"/></g><g id="Halte"/><g id="Bus_Stop"/><g id="Station"/><g id="Airport"/><g id="Layer_17"/></svg>